<?xml version="1.0" encoding="UTF-8" standalone="no"?>
<svg
   xmlns:dc="http://purl.org/dc/elements/1.1/"
   xmlns:cc="http://creativecommons.org/ns#"
   xmlns:rdf="http://www.w3.org/1999/02/22-rdf-syntax-ns#"
   xmlns:svg="http://www.w3.org/2000/svg"
   xmlns="http://www.w3.org/2000/svg"
   xmlns:sodipodi="http://sodipodi.sourceforge.net/DTD/sodipodi-0.dtd"
   xmlns:inkscape="http://www.inkscape.org/namespaces/inkscape"
   width="210mm"
   height="297mm"
   viewBox="0 0 210 297"
   version="1.1"
   id="svg8"
   inkscape:export-filename="C:\Git\APR_Artist_Agency\img\logo\logo-gold.png"
   inkscape:export-xdpi="300"
   inkscape:export-ydpi="300"
   inkscape:version="1.0.1 (3bc2e813f5, 2020-09-07)"
   sodipodi:docname="logo_white.svg">
  <defs
     id="defs2">
    <rect
       x="109.84778"
       y="36.081386"
       width="15.234363"
       height="10.690781"
       id="rect847" />
    <rect
       x="55.859331"
       y="48.108515"
       width="104.50239"
       height="13.898016"
       id="rect841" />
    <rect
       x="69.757347"
       y="22.183371"
       width="68.15373"
       height="39.28862"
       id="rect835" />
    <clipPath
       clipPathUnits="userSpaceOnUse"
       id="clipPath236">
      <path
         style="fill:none;stroke:#000000;stroke-width:0.264583px;stroke-linecap:butt;stroke-linejoin:miter;stroke-opacity:1"
         d="m 75.40625,26.458333 h 7.9375 l -7.9375,-15.875 -6.614583,15.875 z"
         id="path238" />
    </clipPath>
  </defs>
  <sodipodi:namedview
     id="base"
     pagecolor="#ffffff"
     bordercolor="#666666"
     borderopacity="1.0"
     inkscape:pageopacity="0.0"
     inkscape:pageshadow="2"
     inkscape:zoom="5.6"
     inkscape:cx="194.14497"
     inkscape:cy="141.1346"
     inkscape:document-units="mm"
     inkscape:current-layer="g1324"
     inkscape:document-rotation="0"
     showgrid="true"
     inkscape:snap-to-guides="true"
     inkscape:snap-grids="true"
     inkscape:snap-text-baseline="false"
     inkscape:window-width="1857"
     inkscape:window-height="1057"
     inkscape:window-x="55"
     inkscape:window-y="-8"
     inkscape:window-maximized="1"
     inkscape:snap-page="false">
    <inkscape:grid
       type="xygrid"
       id="grid864" />
  </sodipodi:namedview>
  <metadata
     id="metadata5">
    <rdf:RDF>
      <cc:Work
         rdf:about="">
        <dc:format>image/svg+xml</dc:format>
        <dc:type
           rdf:resource="http://purl.org/dc/dcmitype/StillImage" />
        <dc:title></dc:title>
      </cc:Work>
    </rdf:RDF>
  </metadata>
  <g
     inkscape:label="Layer 1"
     inkscape:groupmode="layer"
     id="layer1"
     style="display:inline">
    <text
       xml:space="preserve"
       id="text839"
       style="font-style:normal;font-variant:normal;font-weight:normal;font-stretch:normal;font-size:7.05556px;line-height:1.25;font-family:'Agency FB';-inkscape-font-specification:'Agency FB, Normal';font-variant-ligatures:normal;font-variant-caps:normal;font-variant-numeric:normal;font-variant-east-asian:normal;white-space:pre;shape-inside:url(#rect841);fill:#ab8850;fill-opacity:1;stroke:none;"
       transform="translate(-21.780872,-13.700249)"
       inkscape:export-xdpi="300"
       inkscape:export-ydpi="300"><tspan
         x="55.859375"
         y="54.700706"><tspan
           style="font-style:normal;font-variant:normal;font-weight:normal;font-stretch:normal;font-size:7.05556px;font-family:'Agency FB';-inkscape-font-specification:'Agency FB, Normal';font-variant-ligatures:normal;font-variant-caps:normal;font-variant-numeric:normal;font-variant-east-asian:normal;fill:#ab8850;fill-opacity:1">ARTIST AGENCY</tspan></tspan></text>
    <text
       xml:space="preserve"
       id="text845"
       style="font-style:normal;font-weight:normal;font-size:10.5833px;line-height:1.25;font-family:sans-serif;white-space:pre;shape-inside:url(#rect847);fill:#000000;fill-opacity:1;stroke:none;" />
  </g>
  <g
     inkscape:groupmode="layer"
     id="layer4"
     inkscape:label="Layer 3"
     style="display:none" />
  <g
     inkscape:groupmode="layer"
     id="layer2"
     inkscape:label="Layer 2"
     style="display:inline">
    <g
       id="g1287">
      <g
         id="g1324">
        <g
           id="g1362"
           inkscape:export-xdpi="300"
           inkscape:export-ydpi="300">
          <g
             id="g318"
             transform="translate(-6.0985107,26.545854)"
             inkscape:export-xdpi="300"
             inkscape:export-ydpi="300">
            <g
               id="g1275"
               transform="translate(3.7973352,-1.1279459)">
              <path
                 style="opacity:1;fill:#ab8850;fill-opacity:1;stroke:#808080;stroke-width:0;stroke-miterlimit:4;stroke-dasharray:none;stroke-dashoffset:2.5"
                 d="m 164.03239,124.21234 c -0.0838,-0.1499 -0.33232,-0.62578 -0.55231,-1.05751 -0.21999,-0.43173 -0.77959,-1.52057 -1.24357,-2.41966 -0.46397,-0.89908 -0.83435,-1.64394 -0.82305,-1.65523 0.0113,-0.0113 2.28967,-0.0642 5.06306,-0.11752 2.77339,-0.0533 5.05339,-0.10785 5.06666,-0.12112 0.0246,-0.0246 -0.16261,-0.48391 -0.92915,-2.27981 -0.23714,-0.55558 -0.65823,-1.54995 -0.93577,-2.2097 -0.58026,-1.37941 -1.63135,-3.86689 -2.12087,-5.0192 -0.18439,-0.43405 -0.55682,-1.31478 -0.82763,-1.95717 -0.2708,-0.64239 -0.69831,-1.65097 -0.95,-2.24128 -1.20208,-2.81921 -1.5427,-3.62663 -1.5427,-3.65682 0,-0.018 -0.15336,-0.38162 -0.34079,-0.80804 -0.18743,-0.42642 -0.64554,-1.499772 -1.01803,-2.385234 -1.06628,-2.534701 -2.27736,-5.390612 -2.99856,-7.071067 -0.21608,-0.503498 -0.45852,-1.08886 -0.53874,-1.300805 -0.0802,-0.211944 -0.25923,-0.636331 -0.39779,-0.943081 l -0.25193,-0.557726 0.14614,-0.382745 c 1.13152,-2.963482 1.63334,-4.269079 1.9759,-5.140751 0.34751,-0.884285 0.35834,-0.902312 0.43591,-0.726047 0.0438,0.09941 0.27706,0.621116 0.51846,1.159338 0.24141,0.538222 0.71342,1.603617 1.04892,2.367545 0.59257,1.349289 0.97753,2.216379 1.73781,3.914341 0.20213,0.451412 0.47214,1.062238 0.60002,1.357392 0.12789,0.295154 0.33147,0.749723 0.45242,1.010153 0.12094,0.26043 0.34168,0.757614 0.49052,1.104854 0.14884,0.34724 0.45533,1.043298 0.68109,1.546796 0.73798,1.64591 1.41851,3.186148 1.45569,3.294681 0.02,0.05851 0.22023,0.513081 0.44484,1.010153 0.6964,1.541153 1.47796,3.292473 1.57258,3.523853 0.0497,0.12153 0.26235,0.60451 0.47256,1.07328 0.2102,0.46878 0.61513,1.37791 0.89984,2.02031 0.2847,0.64239 0.73939,1.66517 1.01042,2.27284 0.27103,0.60767 0.93789,2.11343 1.48191,3.34613 0.54402,1.2327 1.17084,2.64194 1.39294,3.13165 0.22209,0.4897 0.43449,0.97268 0.47198,1.07328 0.0375,0.10061 0.25021,0.58067 0.4727,1.0668 0.47283,1.0331 2.11621,4.73785 2.36648,5.33487 0.0946,0.22571 0.25093,0.58084 0.34737,0.78918 0.32825,0.70919 0.49027,1.07279 0.66814,1.49945 l 0.17767,0.42616 h -7.91441 -7.9144 z"
                 id="path1265"
                 transform="matrix(0.26458333,0,0,0.26458333,0.71009617,-24.487866)" />
              <path
                 style="opacity:1;fill:#ab8850;fill-opacity:1;stroke:#808080;stroke-width:0;stroke-miterlimit:4;stroke-dasharray:none;stroke-dashoffset:2.5"
                 d="m 143.71833,124.50228 c 0,-0.0259 0.21119,-0.54465 0.46931,-1.15285 0.25812,-0.60821 0.70086,-1.65983 0.98387,-2.33695 0.93896,-2.24652 1.46404,-3.49237 1.93352,-4.58765 0.25548,-0.59603 0.46451,-1.09976 0.46451,-1.1194 0,-0.0196 0.2446,-0.61159 0.54355,-1.31543 0.29895,-0.70384 0.77032,-1.81951 1.04749,-2.47927 0.27718,-0.65975 0.68321,-1.62571 0.90231,-2.14657 0.21909,-0.52086 0.65921,-1.57205 0.97805,-2.33598 0.67373,-1.61426 1.17574,-2.80873 1.8839,-4.48255 0.27913,-0.65976 0.56255,-1.34161 0.62984,-1.51523 0.0673,-0.17362 0.29224,-0.71342 0.49992,-1.199558 0.20768,-0.486135 0.59225,-1.395273 0.8546,-2.020305 0.26235,-0.625032 0.70461,-1.676222 0.98282,-2.335977 0.2782,-0.659756 0.61049,-1.455251 0.73842,-1.767767 0.12794,-0.312516 0.27667,-0.674751 0.33052,-0.804966 0.0539,-0.130215 0.11679,-0.236754 0.13985,-0.236754 0.0231,0 0.10754,0.16336 0.18771,0.363023 0.0802,0.199663 0.3521,0.846003 0.60431,1.436311 0.2522,0.590308 0.68661,1.613087 0.96535,2.272843 0.27875,0.659756 0.64073,1.512072 0.80441,1.894036 0.16368,0.381964 0.43244,1.021201 0.59723,1.420524 0.16479,0.39933 0.48377,1.15221 0.70883,1.67307 0.22507,0.52086 0.64422,1.50102 0.93145,2.17814 0.28722,0.67712 0.69257,1.62887 0.90078,2.11501 0.2082,0.48613 0.51335,1.2106 0.67811,1.60993 0.16477,0.39932 0.43361,1.03856 0.59742,1.42052 0.16382,0.38197 0.49121,1.14905 0.72753,1.70464 0.23633,0.55558 0.60393,1.41901 0.81689,1.91873 0.21297,0.49972 0.37751,0.91828 0.36565,0.93014 -0.0479,0.0479 -5.62427,0.15135 -5.66688,0.10515 -0.0253,-0.0274 -0.23164,-0.5044 -0.45859,-1.05999 -0.22694,-0.55558 -0.61731,-1.50733 -0.86747,-2.115 -0.25017,-0.60767 -0.59142,-1.44578 -0.75835,-1.86247 -0.63239,-1.57865 -0.87893,-2.14629 -0.94117,-2.16703 -0.0552,-0.0184 -0.76173,1.37569 -1.73822,3.42972 -0.14857,0.31251 -0.62834,1.30377 -1.06617,2.20278 -0.43782,0.89901 -0.79604,1.64479 -0.79604,1.65728 0,0.0125 1.25095,0.0227 2.7799,0.0227 2.59102,0 2.78247,0.008 2.81773,0.11049 0.06,0.17518 1.01144,2.66048 1.45351,3.7967 0.22139,0.56901 0.38511,1.05199 0.36383,1.07328 -0.0213,0.0213 -2.11487,0.0529 -4.6524,0.0703 l -4.61371,0.0316 -0.18389,0.44194 c -0.10114,0.24307 -0.36385,0.8539 -0.5838,1.3574 -1.08785,2.49023 -1.29532,2.9689 -1.46398,3.37769 l -0.18234,0.44195 -2.85505,0.0164 c -1.57028,0.009 -2.85506,-0.005 -2.85506,-0.0306 z"
                 id="path1267"
                 transform="matrix(0.26458333,0,0,0.26458333,0.71009617,-24.487866)" />
            </g>
          </g>
          <g
             id="g1350">
            <text
               xml:space="preserve"
               id="text833"
               style="font-style:normal;font-variant:normal;font-weight:normal;font-stretch:normal;font-size:16.9333px;line-height:1.25;font-family:'Bebas Neue';-inkscape-font-specification:'Bebas Neue, Normal';font-variant-ligatures:normal;font-variant-caps:normal;font-variant-numeric:normal;font-variant-east-asian:normal;white-space:pre;shape-inside:url(#rect835);fill:#ab8850;fill-opacity:1;stroke:none;stroke-width:0.999815;stroke-miterlimit:4;stroke-dasharray:none;"
               transform="matrix(1,0,0,0.95879547,-28.167576,-1.5955647)"
               inkscape:export-xdpi="300"
               inkscape:export-ydpi="300"><tspan
                 x="69.757812"
                 y="37.000231"><tspan
                   style="font-style:normal;font-variant:normal;font-weight:normal;font-stretch:normal;font-size:16.9333px;font-family:'Bebas Neue';-inkscape-font-specification:'Bebas Neue, Normal';font-variant-ligatures:normal;font-variant-caps:normal;font-variant-numeric:normal;font-variant-east-asian:normal;fill:#ab8850;fill-opacity:1;stroke-width:0.999815;stroke-miterlimit:4;stroke-dasharray:none">   P R</tspan></tspan></text>
            <rect
               style="opacity:1;fill:#ab8850;fill-opacity:1;stroke:#808080;stroke-width:0;stroke-miterlimit:4;stroke-dasharray:none;stroke-dashoffset:2.5"
               id="rect1328"
               width="1.3229166"
               height="1.3229166"
               x="46.302082"
               y="27.78125" />
            <rect
               style="display:inline;opacity:1;fill:#ab8850;fill-opacity:1;stroke:#808080;stroke-width:0;stroke-miterlimit:4;stroke-dasharray:none;stroke-dashoffset:2.5"
               id="rect1328-7"
               width="1.3229166"
               height="1.3229166"
               x="56.885418"
               y="27.78125" />
          </g>
        </g>
        <path
           style="opacity:1;fill:#ffffff;fill-opacity:1;stroke:#808080;stroke-width:0;stroke-miterlimit:4;stroke-dasharray:none;stroke-dashoffset:2.5"
           d="m 156.83574,125.26378 -1.34627,-2.63569 5.05094,-0.0935 c 2.77802,-0.0514 5.05095,-0.14167 5.05095,-0.20056 0,-0.0888 -4.41412,-10.55889 -11.41465,-27.075127 -0.7359,-1.7362 -1.33812,-3.241935 -1.33826,-3.346077 -2.8e-4,-0.201718 2.28685,-6.216262 2.34181,-6.158344 0.0179,0.01883 1.26559,2.818474 2.7727,6.221425 2.88757,6.519916 14.18122,31.980383 15.23092,34.336673 0.33823,0.75924 0.61497,1.42689 0.61497,1.48366 0,0.0568 -3.51379,0.10322 -7.80842,0.10322 h -7.80842 z"
           id="path1370"
           transform="scale(0.26458333)"
           inkscape:export-xdpi="300"
           inkscape:export-ydpi="300" />
        <path
           style="opacity:1;fill:#ffffff;fill-opacity:1;stroke:#808080;stroke-width:0;stroke-miterlimit:4;stroke-dasharray:none;stroke-dashoffset:2.5"
           d="M 190.59264,106.55999 V 85.094253 l 4.82979,0.0011 c 2.65638,6.1e-4 5.60271,0.05685 6.54738,0.124971 3.02342,0.218029 5.01676,0.996371 6.62773,2.587931 1.02331,1.010982 1.65249,2.065157 2.11242,3.539296 0.54041,1.732128 0.61664,2.702765 0.56052,7.137214 -0.0593,4.688345 -0.13873,5.183795 -1.16463,7.268135 -0.94093,1.91169 -2.41969,3.21676 -4.50875,3.97917 -1.56406,0.57081 -2.86074,0.74226 -5.61396,0.74226 h -2.44571 v 8.7757 8.7757 h -3.47239 -3.4724 z m 11.99556,-2.36278 c 1.1768,-0.53338 1.59322,-1.28444 1.79275,-3.23349 0.19711,-1.925387 0.058,-6.921914 -0.2151,-7.725112 -0.29709,-0.873804 -0.70898,-1.374936 -1.41638,-1.723274 -0.55368,-0.272641 -0.79244,-0.300613 -2.90762,-0.340642 l -2.30442,-0.04361 v 6.721311 6.721307 l 2.24128,-0.0595 c 1.90289,-0.0505 2.32706,-0.0984 2.80949,-0.31702 z"
           id="path1372"
           transform="scale(0.26458333)"
           inkscape:export-xdpi="300"
           inkscape:export-ydpi="300" />
        <path
           style="opacity:1;fill:#ffffff;fill-opacity:1;stroke:#808080;stroke-width:0;stroke-miterlimit:4;stroke-dasharray:none;stroke-dashoffset:2.5"
           d="M 225.48426,106.58103 V 85.241744 h 6.25752 c 5.00558,0 6.53291,0.05649 7.63393,0.282346 3.38263,0.693891 5.35592,2.414089 6.41563,5.592756 0.36867,1.105875 0.52906,7.343721 0.23383,9.094064 -0.4016,2.38096 -1.59956,4.2603 -3.34278,5.24412 -0.52148,0.2943 -0.94813,0.60402 -0.94813,0.68826 0,0.0842 0.3456,0.30604 0.768,0.49289 1.71633,0.75922 2.73904,2.10584 3.36027,4.42452 0.34264,1.27889 0.39056,2.08351 0.50423,8.46676 0.0844,4.73677 0.19467,7.21868 0.33584,7.55627 0.11562,0.27648 0.21023,0.57955 0.21023,0.67349 0,0.10445 -1.33251,0.15196 -3.42979,0.12231 l -3.42978,-0.0485 -0.25539,-0.80357 c -0.19329,-0.60821 -0.28464,-2.49668 -0.37575,-7.76786 -0.13329,-7.71176 -0.13964,-7.75387 -1.32608,-8.79557 -0.76489,-0.67159 -1.91053,-0.93657 -4.04915,-0.93657 h -1.59835 v 9.19643 9.19642 h -3.48214 -3.48214 z m 11.06784,-3.13949 c 1.07863,-0.24854 1.93157,-0.93721 2.39088,-1.93043 0.34722,-0.75085 0.38056,-1.12798 0.38056,-4.305081 0,-3.281898 -0.0238,-3.530533 -0.41445,-4.323623 -0.68771,-1.396259 -1.28399,-1.646844 -4.09448,-1.720683 l -2.36607,-0.06216 v 6.26752 6.267517 l 1.65179,-0.004 c 0.90848,-0.002 2.01178,-0.0873 2.45177,-0.1887 z"
           id="path1374"
           transform="scale(0.26458333)"
           inkscape:export-xdpi="300"
           inkscape:export-ydpi="300" />
        <path
           style="opacity:1;fill:#ffffff;fill-opacity:1;stroke:#808080;stroke-width:0;stroke-miterlimit:4;stroke-dasharray:none;stroke-dashoffset:2.5"
           d="m 249.76997,150.71459 v -4.17001 l -0.87361,-2.74963 c -0.98739,-3.10775 -2.69782,-8.79646 -2.69782,-8.97268 0,-0.0639 0.35556,-0.11624 0.79014,-0.11624 0.92177,0 0.61565,-0.74708 2.43237,5.93606 0.63387,2.3318 1.19267,4.23982 1.24178,4.24005 0.0491,2.3e-4 0.60361,-1.9076 1.23222,-4.23963 0.62862,-2.33203 1.2545,-4.62175 1.39085,-5.08827 l 0.24791,-0.84821 h 0.80868 c 0.68783,0 0.79429,0.0467 0.71235,0.3125 -0.69945,2.26895 -2.76405,9.12186 -3.16056,10.49069 -0.49828,1.72014 -0.51717,1.92394 -0.51717,5.58036 v 3.79502 h -0.80357 -0.80357 z"
           id="path1376"
           transform="scale(0.26458333)"
           inkscape:export-xdpi="300"
           inkscape:export-ydpi="300" />
        <path
           style="opacity:1;fill:#ffffff;fill-opacity:1;stroke:#808080;stroke-width:0;stroke-miterlimit:4;stroke-dasharray:none;stroke-dashoffset:2.5"
           d="m 236.27971,154.44629 -0.43831,-0.43831 v -9.18047 c 0,-9.01723 0.007,-9.18883 0.3701,-9.65097 l 0.37011,-0.47051 h 3.18154 c 4.23894,0 4.00537,-0.18808 4.08249,3.28738 l 0.0578,2.60548 h -0.90603 -0.90603 v -2.23215 -2.23214 h -2.32143 -2.32143 v 8.66071 8.66072 h 2.32143 2.32143 v -2.5 -2.5 h 0.89286 0.89285 v 2.58088 c 0,2.76649 -0.12816,3.32889 -0.83166,3.64943 -0.26273,0.1197 -1.60245,0.19826 -3.38129,0.19826 -2.8899,0 -2.9545,-0.008 -3.38445,-0.43831 z"
           id="path1378"
           transform="scale(0.26458333)"
           inkscape:export-xdpi="300"
           inkscape:export-ydpi="300" />
        <path
           style="opacity:1;fill:#ffffff;fill-opacity:1;stroke:#808080;stroke-width:0;stroke-miterlimit:4;stroke-dasharray:none;stroke-dashoffset:2.5"
           d="m 224.23426,144.79531 v -10.08928 l 0.58035,0.002 0.58036,0.002 2.48758,6.91716 c 1.36817,3.80444 2.5904,7.11806 2.71607,7.36359 0.18922,0.36972 0.22971,-0.81933 0.23563,-6.91964 l 0.007,-7.36607 h 0.80357 0.80357 v 10.08928 10.08929 l -0.58036,-0.002 -0.58035,-0.002 -2.67559,-7.42372 c -1.47157,-4.08305 -2.7372,-7.46181 -2.8125,-7.50835 -0.0753,-0.0465 -0.13691,3.29513 -0.13691,7.42592 v 7.51054 h -0.71429 -0.71428 z"
           id="path1380"
           transform="scale(0.26458333)"
           inkscape:export-xdpi="300"
           inkscape:export-ydpi="300" />
        <path
           style="opacity:1;fill:#ffffff;fill-opacity:1;stroke:#808080;stroke-width:0;stroke-miterlimit:4;stroke-dasharray:none;stroke-dashoffset:2.5"
           d="m 216.45345,149.34889 c 0,-2.20983 0.0256,-3.11384 0.057,-2.00893 0.0313,1.10491 0.0313,2.91294 0,4.01785 -0.0313,1.10492 -0.057,0.2009 -0.057,-2.00892 z"
           id="path1382"
           transform="scale(0.26458333)"
           inkscape:export-xdpi="300"
           inkscape:export-ydpi="300" />
        <path
           style="opacity:1;fill:#ffffff;fill-opacity:1;stroke:#808080;stroke-width:0;stroke-miterlimit:4;stroke-dasharray:none;stroke-dashoffset:2.5"
           d="m 214.5914,144.79531 v -10.08928 h 3.21428 3.21429 v 0.71428 0.71429 h -2.32143 -2.32143 v 3.83929 3.83928 h 2.14286 2.14286 v 0.80357 0.80357 h -2.14286 -2.14286 v 4.01786 4.01786 h 2.41072 2.41071 v 0.71428 0.71429 h -3.30357 -3.30357 z"
           id="path1384"
           transform="scale(0.26458333)"
           inkscape:export-xdpi="300"
           inkscape:export-ydpi="300" />
        <path
           style="opacity:1;fill:#ffffff;fill-opacity:1;stroke:#808080;stroke-width:0;stroke-miterlimit:4;stroke-dasharray:none;stroke-dashoffset:2.5"
           d="m 203.60114,154.44629 -0.43831,-0.43831 v -9.21267 -9.21266 l 0.43831,-0.43831 c 0.43266,-0.43267 0.47941,-0.43831 3.62959,-0.43831 4.16953,0 3.96781,-0.17081 3.96781,3.35972 v 2.53314 h -0.80357 -0.80357 v -2.23215 -2.23214 h -2.41072 -2.41071 v 8.66071 8.66072 h 2.41071 2.41072 v -3.57143 -3.57143 h -1.07143 -1.07143 v -0.71428 -0.71429 h 1.875 1.875 v 4.6299 4.62989 l -0.47051,0.37011 c -0.43508,0.34223 -0.70461,0.3701 -3.57954,0.3701 -3.06286,0 -3.11555,-0.007 -3.54735,-0.43831 z"
           id="path1386"
           transform="scale(0.26458333)"
           inkscape:export-xdpi="300"
           inkscape:export-ydpi="300" />
        <path
           style="opacity:1;fill:#ffffff;fill-opacity:1;stroke:#808080;stroke-width:0;stroke-miterlimit:4;stroke-dasharray:none;stroke-dashoffset:2.5"
           d="m 191.80843,154.39353 c 0.17469,-0.83656 3.49725,-19.57696 3.49725,-19.72573 0,-0.0772 0.36008,-0.14034 0.80017,-0.14034 0.68218,0 0.8144,0.0593 0.89664,0.40178 0.1359,0.56607 3.48177,19.57973 3.48177,19.78599 0,0.0932 -0.35052,0.16937 -0.77892,0.16937 h -0.77891 l -0.33716,-2.1875 -0.33716,-2.1875 h -2.14198 -2.14198 l -0.33377,2.1875 -0.33376,2.1875 h -0.79737 c -0.77567,0 -0.79458,-0.0134 -0.69482,-0.49107 z m 6.17508,-5.53572 c -0.001,-0.18807 -1.58558,-10.02364 -1.71378,-10.63776 -0.0579,-0.27712 -0.1392,-0.46982 -0.18079,-0.42823 -0.0659,0.0659 -1.84881,10.71295 -1.85307,11.06599 -8.9e-4,0.0737 0.84214,0.13393 1.87339,0.13393 1.03125,0 1.87466,-0.0603 1.87425,-0.13393 z"
           id="path1388"
           transform="scale(0.26458333)"
           inkscape:export-xdpi="300"
           inkscape:export-ydpi="300" />
        <path
           style="opacity:1;fill:#ffffff;fill-opacity:1;stroke:#808080;stroke-width:0;stroke-miterlimit:4;stroke-dasharray:none;stroke-dashoffset:2.5"
           d="m 180.26263,145.55424 -0.0462,-9.33035 -1.5625,-0.0516 -1.5625,-0.0516 v -0.70734 -0.70733 h 3.92857 3.92857 v 0.71428 0.71429 h -1.51786 -1.51785 v 9.375 9.375 h -0.80198 -0.80198 z"
           id="path1390"
           transform="scale(0.26458333)"
           inkscape:export-xdpi="300"
           inkscape:export-ydpi="300" />
        <path
           style="opacity:1;fill:#ffffff;fill-opacity:1;stroke:#808080;stroke-width:0;stroke-miterlimit:4;stroke-dasharray:none;stroke-dashoffset:2.5"
           d="m 167.35114,154.44629 c -0.42778,-0.42778 -0.43831,-0.50505 -0.43831,-3.21429 v -2.77597 h 0.80357 0.80357 v 2.5 2.5 h 2.32143 2.32143 v -2.5036 -2.50359 l -2.94459,-3.55138 c -1.61953,-1.95325 -3.02578,-3.7649 -3.125,-4.02588 -0.0992,-0.26098 -0.18041,-1.55776 -0.18041,-2.88172 0,-2.31771 0.0163,-2.4235 0.43831,-2.84552 0.43192,-0.43192 0.4838,-0.43831 3.55847,-0.43831 h 3.12015 l 0.37011,0.47051 c 0.334,0.42462 0.3701,0.712 0.3701,2.94643 v 2.47592 h -0.80357 -0.80357 v -2.23215 -2.23214 h -2.32143 -2.32143 l 0.004,2.1875 0.004,2.1875 2.95499,3.54805 c 1.62524,1.95142 3.02971,3.7446 3.12105,3.98484 0.0913,0.24023 0.16607,1.68075 0.16607,3.20114 0,2.69689 -0.0107,2.77504 -0.43831,3.20266 -0.43118,0.43117 -0.48802,0.43831 -3.49026,0.43831 -3.00225,0 -3.05909,-0.007 -3.49026,-0.43831 z"
           id="path1392"
           transform="scale(0.26458333)"
           inkscape:export-xdpi="300"
           inkscape:export-ydpi="300" />
        <path
           style="opacity:1;fill:#ffffff;fill-opacity:1;stroke:#808080;stroke-width:0;stroke-miterlimit:4;stroke-dasharray:none;stroke-dashoffset:2.5"
           d="m 161.73426,144.79531 v -10.08928 h 0.89285 0.89286 v 10.08928 10.08929 h -0.89286 -0.89285 z"
           id="path1394"
           transform="scale(0.26458333)"
           inkscape:export-xdpi="300"
           inkscape:export-ydpi="300" />
        <path
           style="opacity:1;fill:#ffffff;fill-opacity:1;stroke:#808080;stroke-width:0;stroke-miterlimit:4;stroke-dasharray:none;stroke-dashoffset:2.5"
           d="m 154.5914,145.5096 v -9.375 h -1.60714 -1.60715 v -0.71429 -0.71428 h 4.01786 4.01786 v 0.71428 0.71429 h -1.60715 -1.60714 v 9.375 9.375 h -0.80357 -0.80357 z"
           id="path1396"
           transform="scale(0.26458333)"
           inkscape:export-xdpi="300"
           inkscape:export-ydpi="300" />
        <path
           style="opacity:1;fill:#ffffff;fill-opacity:1;stroke:#808080;stroke-width:0;stroke-miterlimit:4;stroke-dasharray:none;stroke-dashoffset:2.5"
           d="m 141.19854,144.79531 v -10.08928 h 3.62959 c 4.83959,0 4.40613,-0.5137 4.40613,5.22176 v 4.39517 l -0.47051,0.37011 c -0.35454,0.27887 -0.72868,0.3701 -1.51786,0.3701 -0.57604,0 -1.04735,0.0628 -1.04735,0.13959 0,0.0768 0.76339,2.25974 1.69643,4.85104 0.93304,2.59131 1.69643,4.74272 1.69643,4.78092 0,0.0382 -0.37777,0.045 -0.83949,0.015 l -0.83948,-0.0544 -1.83393,-5.26785 c -1.00866,-2.89732 -1.83625,-5.36831 -1.83909,-5.49107 -0.004,-0.16327 0.45043,-0.22322 1.69127,-0.22322 h 1.69643 v -3.83928 -3.83929 h -2.41071 -2.41072 v 9.375 9.375 h -0.80357 -0.80357 z"
           id="path1398"
           transform="scale(0.26458333)"
           inkscape:export-xdpi="300"
           inkscape:export-ydpi="300" />
        <path
           style="opacity:1;fill:#ffffff;fill-opacity:1;stroke:#808080;stroke-width:0;stroke-miterlimit:4;stroke-dasharray:none;stroke-dashoffset:2.5"
           d="m 129.76997,154.74014 c 0,-0.14683 3.31287,-18.82217 3.49847,-19.72161 0.0918,-0.44474 0.17448,-0.49107 0.87653,-0.49107 0.70184,0 0.78487,0.0465 0.87741,0.49107 0.0562,0.27009 0.82774,4.62946 1.7145,9.6875 0.88676,5.05803 1.6571,9.41741 1.71188,9.6875 0.0971,0.47872 0.079,0.49107 -0.71817,0.49107 -0.44977,0 -0.81776,-0.0503 -0.81776,-0.11181 0,-0.15004 -0.5311,-3.44325 -0.63714,-3.95069 -0.0813,-0.38929 -0.14965,-0.40179 -2.19596,-0.40179 h -2.11201 l -0.33337,2.23215 -0.33336,2.23214 h -0.76551 c -0.42103,0 -0.76551,-0.065 -0.76551,-0.14446 z m 6.177,-6.23947 c -0.0557,-0.27009 -0.46717,-2.77779 -0.91425,-5.57268 -0.44708,-2.79489 -0.8459,-5.11464 -0.88627,-5.155 -0.0404,-0.0404 -0.11718,0.1169 -0.1707,0.34947 -0.15029,0.65305 -1.70578,10.33668 -1.70578,10.61926 0,0.19856 0.38883,0.25002 1.88919,0.25002 h 1.88919 z"
           id="path1400"
           transform="scale(0.26458333)"
           inkscape:export-xdpi="300"
           inkscape:export-ydpi="300" />
        <path
           style="opacity:1;fill:#ffffff;fill-opacity:1;stroke:#808080;stroke-width:0;stroke-miterlimit:4;stroke-dasharray:none;stroke-dashoffset:2.5"
           d="m 180.019,107.47389 c 2.8e-4,-1.375 0.0283,-1.9139 0.0623,-1.19755 0.034,0.71635 0.0337,1.84135 -5.1e-4,2.5 -0.0343,0.65865 -0.0621,0.0725 -0.0618,-1.30245 z"
           id="path1402"
           transform="scale(0.26458333)"
           inkscape:export-xdpi="300"
           inkscape:export-ydpi="300" />
        <path
           style="opacity:1;fill:#ffffff;fill-opacity:1;stroke:#808080;stroke-width:0;stroke-miterlimit:4;stroke-dasharray:none;stroke-dashoffset:2.5"
           d="m 215.12711,107.47389 v -2.41072 h 2.41072 2.41071 v 2.41072 2.41071 h -2.41071 -2.41072 z"
           id="path1404"
           transform="scale(0.26458333)"
           inkscape:export-xdpi="300"
           inkscape:export-ydpi="300" />
        <path
           style="opacity:1;fill:#ffffff;fill-opacity:1;stroke:#808080;stroke-width:0;stroke-miterlimit:4;stroke-dasharray:none;stroke-dashoffset:2.5"
           d="m 175.12711,107.47389 v -2.41072 h 2.41072 2.41071 v 2.41072 2.41071 h -2.41071 -2.41072 z"
           id="path1406"
           transform="scale(0.26458333)"
           inkscape:export-xdpi="300"
           inkscape:export-ydpi="300" />
        <path
           style="opacity:1;fill:#ffffff;fill-opacity:1;stroke:#808080;stroke-width:0;stroke-miterlimit:4;stroke-dasharray:none;stroke-dashoffset:2.5"
           d="m 138.1564,127.16588 c 0.35361,-0.80677 8.12814,-19.33536 11.03502,-26.29914 0.94295,-2.258925 1.76621,-4.169389 1.82947,-4.245473 0.0633,-0.07608 2.06211,4.452983 4.44187,10.064583 2.37977,5.61161 4.30037,10.2294 4.26802,10.26175 -0.0324,0.0324 -1.25142,0.0836 -2.70904,0.11398 l -2.65022,0.0552 -1.39568,-3.39285 c -0.76762,-1.86608 -1.4738,-3.5134 -1.56928,-3.66072 -0.1322,-0.20398 -0.60355,0.6089 -1.97652,3.40872 -0.99161,2.02211 -1.80293,3.7297 -1.80293,3.79464 0,0.0649 1.23884,0.11807 2.75297,0.11807 h 2.75296 l 0.91233,2.34661 c 0.50178,1.29064 0.89018,2.36802 0.86311,2.39417 -0.0271,0.0262 -2.11031,0.1061 -4.62941,0.17764 l -4.58019,0.13008 -1.15068,2.69897 -1.15067,2.69896 -2.78787,0.0491 -2.78787,0.0491 z"
           id="path1408"
           transform="scale(0.26458333)"
           inkscape:export-xdpi="300"
           inkscape:export-ydpi="300" />
        <path
           style="opacity:1;fill:#ffffff;fill-opacity:1;stroke:#808080;stroke-width:0;stroke-miterlimit:4;stroke-dasharray:none;stroke-dashoffset:2.5"
           d=""
           id="path1410"
           transform="scale(0.26458333)" />
      </g>
    </g>
  </g>
</svg>
