<?xml version="1.0" encoding="UTF-8" standalone="no"?>
<svg
   xmlns:dc="http://purl.org/dc/elements/1.1/"
   xmlns:cc="http://creativecommons.org/ns#"
   xmlns:rdf="http://www.w3.org/1999/02/22-rdf-syntax-ns#"
   xmlns:svg="http://www.w3.org/2000/svg"
   xmlns="http://www.w3.org/2000/svg"
   xmlns:sodipodi="http://sodipodi.sourceforge.net/DTD/sodipodi-0.dtd"
   xmlns:inkscape="http://www.inkscape.org/namespaces/inkscape"
   width="210mm"
   height="297mm"
   viewBox="0 0 210 297"
   version="1.1"
   id="svg8"
   inkscape:export-filename="C:\Git\APR_Artist_Agency\img\logo\logo-gold.png"
   inkscape:export-xdpi="300"
   inkscape:export-ydpi="300"
   inkscape:version="1.0.1 (3bc2e813f5, 2020-09-07)"
   sodipodi:docname="logo_gold.svg">
  <defs
     id="defs2">
    <rect
       x="109.84778"
       y="36.081386"
       width="15.234363"
       height="10.690781"
       id="rect847" />
    <rect
       x="55.859331"
       y="48.108515"
       width="104.50239"
       height="13.898016"
       id="rect841" />
    <rect
       x="69.757347"
       y="22.183371"
       width="68.15373"
       height="39.28862"
       id="rect835" />
    <clipPath
       clipPathUnits="userSpaceOnUse"
       id="clipPath236">
      <path
         style="fill:none;stroke:#000000;stroke-width:0.264583px;stroke-linecap:butt;stroke-linejoin:miter;stroke-opacity:1"
         d="m 75.40625,26.458333 h 7.9375 l -7.9375,-15.875 -6.614583,15.875 z"
         id="path238" />
    </clipPath>
  </defs>
  <sodipodi:namedview
     id="base"
     pagecolor="#ffffff"
     bordercolor="#666666"
     borderopacity="1.0"
     inkscape:pageopacity="0.0"
     inkscape:pageshadow="2"
     inkscape:zoom="2.8"
     inkscape:cx="88.633987"
     inkscape:cy="162.33387"
     inkscape:document-units="mm"
     inkscape:current-layer="g1324"
     inkscape:document-rotation="0"
     showgrid="true"
     inkscape:snap-to-guides="true"
     inkscape:snap-grids="true"
     inkscape:snap-text-baseline="false"
     inkscape:window-width="1857"
     inkscape:window-height="1057"
     inkscape:window-x="55"
     inkscape:window-y="-8"
     inkscape:window-maximized="1"
     inkscape:snap-page="false">
    <inkscape:grid
       type="xygrid"
       id="grid864" />
  </sodipodi:namedview>
  <metadata
     id="metadata5">
    <rdf:RDF>
      <cc:Work
         rdf:about="">
        <dc:format>image/svg+xml</dc:format>
        <dc:type
           rdf:resource="http://purl.org/dc/dcmitype/StillImage" />
        <dc:title />
      </cc:Work>
    </rdf:RDF>
  </metadata>
  <g
     inkscape:label="Layer 1"
     inkscape:groupmode="layer"
     id="layer1"
     style="display:inline">
    <text
       xml:space="preserve"
       id="text839"
       style="font-style:normal;font-variant:normal;font-weight:normal;font-stretch:normal;font-size:7.05556px;line-height:1.25;font-family:'Agency FB';-inkscape-font-specification:'Agency FB, Normal';font-variant-ligatures:normal;font-variant-caps:normal;font-variant-numeric:normal;font-variant-east-asian:normal;white-space:pre;shape-inside:url(#rect841);fill:#ab8850;fill-opacity:1;stroke:none;"
       transform="translate(-21.780872,-13.700249)"
       inkscape:export-xdpi="300"
       inkscape:export-ydpi="300"><tspan
         x="55.859375"
         y="54.700706"><tspan
           style="font-style:normal;font-variant:normal;font-weight:normal;font-stretch:normal;font-size:7.05556px;font-family:'Agency FB';-inkscape-font-specification:'Agency FB, Normal';font-variant-ligatures:normal;font-variant-caps:normal;font-variant-numeric:normal;font-variant-east-asian:normal;fill:#ab8850;fill-opacity:1">ARTIST AGENCY</tspan></tspan></text>
    <text
       xml:space="preserve"
       id="text845"
       style="font-style:normal;font-weight:normal;font-size:10.5833px;line-height:1.25;font-family:sans-serif;white-space:pre;shape-inside:url(#rect847);fill:#000000;fill-opacity:1;stroke:none;" />
  </g>
  <g
     inkscape:groupmode="layer"
     id="layer4"
     inkscape:label="Layer 3"
     style="display:none" />
  <g
     inkscape:groupmode="layer"
     id="layer2"
     inkscape:label="Layer 2"
     style="display:inline">
    <g
       id="g1287">
      <g
         id="g1324">
        <g
           id="g1362">
          <g
             id="g318"
             transform="translate(-6.0985107,26.545854)"
             inkscape:export-xdpi="300"
             inkscape:export-ydpi="300">
            <g
               id="g1275"
               transform="translate(3.7973352,-1.1279459)">
              <path
                 style="opacity:1;fill:#ab8850;fill-opacity:1;stroke:#808080;stroke-width:0;stroke-miterlimit:4;stroke-dasharray:none;stroke-dashoffset:2.5"
                 d="m 164.03239,124.21234 c -0.0838,-0.1499 -0.33232,-0.62578 -0.55231,-1.05751 -0.21999,-0.43173 -0.77959,-1.52057 -1.24357,-2.41966 -0.46397,-0.89908 -0.83435,-1.64394 -0.82305,-1.65523 0.0113,-0.0113 2.28967,-0.0642 5.06306,-0.11752 2.77339,-0.0533 5.05339,-0.10785 5.06666,-0.12112 0.0246,-0.0246 -0.16261,-0.48391 -0.92915,-2.27981 -0.23714,-0.55558 -0.65823,-1.54995 -0.93577,-2.2097 -0.58026,-1.37941 -1.63135,-3.86689 -2.12087,-5.0192 -0.18439,-0.43405 -0.55682,-1.31478 -0.82763,-1.95717 -0.2708,-0.64239 -0.69831,-1.65097 -0.95,-2.24128 -1.20208,-2.81921 -1.5427,-3.62663 -1.5427,-3.65682 0,-0.018 -0.15336,-0.38162 -0.34079,-0.80804 -0.18743,-0.42642 -0.64554,-1.499772 -1.01803,-2.385234 -1.06628,-2.534701 -2.27736,-5.390612 -2.99856,-7.071067 -0.21608,-0.503498 -0.45852,-1.08886 -0.53874,-1.300805 -0.0802,-0.211944 -0.25923,-0.636331 -0.39779,-0.943081 l -0.25193,-0.557726 0.14614,-0.382745 c 1.13152,-2.963482 1.63334,-4.269079 1.9759,-5.140751 0.34751,-0.884285 0.35834,-0.902312 0.43591,-0.726047 0.0438,0.09941 0.27706,0.621116 0.51846,1.159338 0.24141,0.538222 0.71342,1.603617 1.04892,2.367545 0.59257,1.349289 0.97753,2.216379 1.73781,3.914341 0.20213,0.451412 0.47214,1.062238 0.60002,1.357392 0.12789,0.295154 0.33147,0.749723 0.45242,1.010153 0.12094,0.26043 0.34168,0.757614 0.49052,1.104854 0.14884,0.34724 0.45533,1.043298 0.68109,1.546796 0.73798,1.64591 1.41851,3.186148 1.45569,3.294681 0.02,0.05851 0.22023,0.513081 0.44484,1.010153 0.6964,1.541153 1.47796,3.292473 1.57258,3.523853 0.0497,0.12153 0.26235,0.60451 0.47256,1.07328 0.2102,0.46878 0.61513,1.37791 0.89984,2.02031 0.2847,0.64239 0.73939,1.66517 1.01042,2.27284 0.27103,0.60767 0.93789,2.11343 1.48191,3.34613 0.54402,1.2327 1.17084,2.64194 1.39294,3.13165 0.22209,0.4897 0.43449,0.97268 0.47198,1.07328 0.0375,0.10061 0.25021,0.58067 0.4727,1.0668 0.47283,1.0331 2.11621,4.73785 2.36648,5.33487 0.0946,0.22571 0.25093,0.58084 0.34737,0.78918 0.32825,0.70919 0.49027,1.07279 0.66814,1.49945 l 0.17767,0.42616 h -7.91441 -7.9144 z"
                 id="path1265"
                 transform="matrix(0.26458333,0,0,0.26458333,0.71009617,-24.487866)" />
              <path
                 style="opacity:1;fill:#ab8850;fill-opacity:1;stroke:#808080;stroke-width:0;stroke-miterlimit:4;stroke-dasharray:none;stroke-dashoffset:2.5"
                 d="m 143.71833,124.50228 c 0,-0.0259 0.21119,-0.54465 0.46931,-1.15285 0.25812,-0.60821 0.70086,-1.65983 0.98387,-2.33695 0.93896,-2.24652 1.46404,-3.49237 1.93352,-4.58765 0.25548,-0.59603 0.46451,-1.09976 0.46451,-1.1194 0,-0.0196 0.2446,-0.61159 0.54355,-1.31543 0.29895,-0.70384 0.77032,-1.81951 1.04749,-2.47927 0.27718,-0.65975 0.68321,-1.62571 0.90231,-2.14657 0.21909,-0.52086 0.65921,-1.57205 0.97805,-2.33598 0.67373,-1.61426 1.17574,-2.80873 1.8839,-4.48255 0.27913,-0.65976 0.56255,-1.34161 0.62984,-1.51523 0.0673,-0.17362 0.29224,-0.71342 0.49992,-1.199558 0.20768,-0.486135 0.59225,-1.395273 0.8546,-2.020305 0.26235,-0.625032 0.70461,-1.676222 0.98282,-2.335977 0.2782,-0.659756 0.61049,-1.455251 0.73842,-1.767767 0.12794,-0.312516 0.27667,-0.674751 0.33052,-0.804966 0.0539,-0.130215 0.11679,-0.236754 0.13985,-0.236754 0.0231,0 0.10754,0.16336 0.18771,0.363023 0.0802,0.199663 0.3521,0.846003 0.60431,1.436311 0.2522,0.590308 0.68661,1.613087 0.96535,2.272843 0.27875,0.659756 0.64073,1.512072 0.80441,1.894036 0.16368,0.381964 0.43244,1.021201 0.59723,1.420524 0.16479,0.39933 0.48377,1.15221 0.70883,1.67307 0.22507,0.52086 0.64422,1.50102 0.93145,2.17814 0.28722,0.67712 0.69257,1.62887 0.90078,2.11501 0.2082,0.48613 0.51335,1.2106 0.67811,1.60993 0.16477,0.39932 0.43361,1.03856 0.59742,1.42052 0.16382,0.38197 0.49121,1.14905 0.72753,1.70464 0.23633,0.55558 0.60393,1.41901 0.81689,1.91873 0.21297,0.49972 0.37751,0.91828 0.36565,0.93014 -0.0479,0.0479 -5.62427,0.15135 -5.66688,0.10515 -0.0253,-0.0274 -0.23164,-0.5044 -0.45859,-1.05999 -0.22694,-0.55558 -0.61731,-1.50733 -0.86747,-2.115 -0.25017,-0.60767 -0.59142,-1.44578 -0.75835,-1.86247 -0.63239,-1.57865 -0.87893,-2.14629 -0.94117,-2.16703 -0.0552,-0.0184 -0.76173,1.37569 -1.73822,3.42972 -0.14857,0.31251 -0.62834,1.30377 -1.06617,2.20278 -0.43782,0.89901 -0.79604,1.64479 -0.79604,1.65728 0,0.0125 1.25095,0.0227 2.7799,0.0227 2.59102,0 2.78247,0.008 2.81773,0.11049 0.06,0.17518 1.01144,2.66048 1.45351,3.7967 0.22139,0.56901 0.38511,1.05199 0.36383,1.07328 -0.0213,0.0213 -2.11487,0.0529 -4.6524,0.0703 l -4.61371,0.0316 -0.18389,0.44194 c -0.10114,0.24307 -0.36385,0.8539 -0.5838,1.3574 -1.08785,2.49023 -1.29532,2.9689 -1.46398,3.37769 l -0.18234,0.44195 -2.85505,0.0164 c -1.57028,0.009 -2.85506,-0.005 -2.85506,-0.0306 z"
                 id="path1267"
                 transform="matrix(0.26458333,0,0,0.26458333,0.71009617,-24.487866)" />
            </g>
          </g>
          <g
             id="g1350">
            <text
               xml:space="preserve"
               id="text833"
               style="font-style:normal;font-variant:normal;font-weight:normal;font-stretch:normal;font-size:16.9333px;line-height:1.25;font-family:'Bebas Neue';-inkscape-font-specification:'Bebas Neue, Normal';font-variant-ligatures:normal;font-variant-caps:normal;font-variant-numeric:normal;font-variant-east-asian:normal;white-space:pre;shape-inside:url(#rect835);fill:#ab8850;fill-opacity:1;stroke:none;stroke-width:0.999815;stroke-miterlimit:4;stroke-dasharray:none;"
               transform="matrix(1,0,0,0.95879547,-28.167576,-1.5955647)"
               inkscape:export-xdpi="300"
               inkscape:export-ydpi="300"><tspan
                 x="69.757812"
                 y="37.000231"><tspan
                   style="font-style:normal;font-variant:normal;font-weight:normal;font-stretch:normal;font-size:16.9333px;font-family:'Bebas Neue';-inkscape-font-specification:'Bebas Neue, Normal';font-variant-ligatures:normal;font-variant-caps:normal;font-variant-numeric:normal;font-variant-east-asian:normal;fill:#ab8850;fill-opacity:1;stroke-width:0.999815;stroke-miterlimit:4;stroke-dasharray:none">   P R</tspan></tspan></text>
            <rect
               style="opacity:1;fill:#ab8850;fill-opacity:1;stroke:#808080;stroke-width:0;stroke-miterlimit:4;stroke-dasharray:none;stroke-dashoffset:2.5"
               id="rect1328"
               width="1.3229166"
               height="1.3229166"
               x="46.302082"
               y="27.78125" />
            <rect
               style="display:inline;opacity:1;fill:#ab8850;fill-opacity:1;stroke:#808080;stroke-width:0;stroke-miterlimit:4;stroke-dasharray:none;stroke-dashoffset:2.5"
               id="rect1328-7"
               width="1.3229166"
               height="1.3229166"
               x="56.885418"
               y="27.78125" />
          </g>
        </g>
      </g>
    </g>
  </g>
</svg>
