<svg xmlns="http://www.w3.org/2000/svg" viewBox="0 0 48 48" width="48" height="48">
	<style>
		tspan { white-space:pre }
		.shp0 { fill: #ffffff } 
	</style>
	<g id="Layer_5">
	</g>
	<g id="Layer">
		<g id="Layer">
			<path id="Layer" fill-rule="evenodd" class="shp0" d="M47.32 14.81L47.32 32.54C47.32 33.11 47.33 33.67 47.32 34.24C47.32 34.71 47.32 35.19 47.3 35.66C47.27 36.7 47.21 37.75 47.03 38.77C46.84 39.82 46.53 40.79 46.05 41.73C45.58 42.67 44.96 43.52 44.23 44.25C43.49 44.99 42.63 45.61 41.71 46.08C40.77 46.56 39.79 46.87 38.76 47.05C37.73 47.24 36.68 47.3 35.64 47.33C35.17 47.34 34.69 47.35 34.22 47.35C33.65 47.35 15.37 47.35 14.8 47.35C14.24 47.35 13.67 47.36 13.1 47.35C12.63 47.35 12.15 47.34 11.68 47.33C10.64 47.3 9.59 47.24 8.57 47.05C7.53 46.87 6.56 46.56 5.62 46.08C4.69 45.61 3.83 44.99 3.1 44.25C2.36 43.52 1.74 42.66 1.27 41.73C0.79 40.79 0.48 39.81 0.3 38.77C0.11 37.75 0.05 36.7 0.02 35.66C0.01 35.19 0 34.71 0 34.24C0 33.67 0 15.38 0 14.81C0 14.25 0 13.68 0 13.12C0.01 12.64 0.01 12.16 0.02 11.69C0.05 10.65 0.11 9.61 0.3 8.58C0.48 7.54 0.79 6.57 1.27 5.62C1.74 4.69 2.37 3.84 3.1 3.1C3.84 2.37 4.69 1.75 5.62 1.28C6.56 0.79 7.54 0.49 8.57 0.3C9.6 0.11 10.65 0.05 11.68 0.02C12.16 0.01 12.64 0 13.11 0C13.68 0 31.97 0 32.53 0C33.1 0 33.67 0 34.23 0C34.7 0.01 35.18 0.01 35.66 0.02C36.7 0.05 37.75 0.11 38.77 0.3C39.81 0.48 40.78 0.79 41.73 1.27C42.65 1.74 43.51 2.36 44.25 3.1C44.98 3.83 45.6 4.69 46.07 5.62C46.55 6.56 46.86 7.54 47.05 8.57C47.23 9.6 47.3 10.65 47.32 11.68C47.34 12.16 47.34 12.64 47.34 13.11C47.34 13.68 47.34 14.24 47.32 14.81ZM34.66 30.81L34.67 8.48C34.67 7.67 34.24 7.17 33.48 7.23C33.36 7.25 32.34 7.42 32.22 7.45L18.13 10.3L18.13 10.3C17.77 10.38 17.48 10.51 17.25 10.69C16.98 10.92 16.84 11.24 16.78 11.61C16.77 11.68 16.75 11.84 16.75 12.08C16.75 12.08 16.75 26.46 16.75 29.69C16.75 30.1 16.71 30.5 16.44 30.84C16.16 31.19 15.81 31.29 15.41 31.37C15.1 31.43 14.8 31.5 14.49 31.56C13.33 31.79 12.57 31.95 11.89 32.21C11.23 32.47 10.74 32.79 10.35 33.2C9.57 34.01 9.26 35.11 9.37 36.14C9.47 37.02 9.86 37.86 10.54 38.49C11 38.91 11.57 39.22 12.25 39.36C12.95 39.5 13.7 39.45 14.79 39.23C15.37 39.11 15.91 38.93 16.43 38.62C16.94 38.32 17.39 37.92 17.73 37.43C18.07 36.93 18.29 36.39 18.42 35.8C18.54 35.2 18.58 34.66 18.58 34.06L18.58 18.79C18.58 17.96 18.81 17.75 19.47 17.59C19.47 17.59 31.17 15.23 31.71 15.12C32.48 14.98 32.83 15.2 32.83 15.99L32.83 26.42C32.83 26.83 32.83 27.25 32.55 27.59C32.27 27.93 31.92 28.04 31.52 28.12C31.21 28.18 30.91 28.24 30.6 28.3C29.44 28.53 28.68 28.69 28 28.96C27.34 29.21 26.85 29.54 26.46 29.94C25.69 30.76 25.35 31.86 25.45 32.89C25.55 33.76 25.97 34.61 26.65 35.23C27.11 35.65 27.68 35.96 28.36 36.1C29.06 36.24 29.81 36.18 30.9 35.97C31.48 35.85 32.02 35.68 32.54 35.37C33.05 35.07 33.49 34.67 33.84 34.17C34.18 33.68 34.4 33.13 34.53 32.55C34.65 31.95 34.66 31.4 34.66 30.81Z" />
		</g>
	</g>
</svg>