<svg xmlns="http://www.w3.org/2000/svg" viewBox="0 0 48 48" width="48" height="48">
	<style>
		tspan { white-space:pre }
		.shp0 { fill: #b1e3fa } 
		.shp1 { fill: #f7bacf } 
		.shp2 { fill: #e7ee9f } 
		.shp3 { fill: #feea3a } 
		.shp4 { fill: #fe9d7f } 
		.shp5 { fill: #4ec2f6 } 
		.shp6 { fill: #ccdb38 } 
		.shp7 { fill: #fe3f80 } 
		.shp8 { fill: #fe3d02 } 
	</style>
	<path id="path59" class="shp0" d="M39.11 25.46L39.11 24.42L47.9 24.42L47.9 26.5L39.11 26.5L39.11 25.46ZM39.11 22.13L39.11 21.09L47.9 21.09L47.9 23.17L39.11 23.17L39.11 22.13ZM39.11 18.8L39.11 17.76L47.9 17.76L47.9 19.84L39.11 19.84L39.11 18.8L39.11 18.8ZM39.11 15.37L39.11 14.33L47.9 14.33L47.9 16.51L39.11 16.51L39.11 15.37L39.11 15.37ZM39.11 12.14L39.11 11L47.9 11L47.9 13.29L39.11 13.29L39.11 12.14L39.11 12.14Z" />
	<path id="path57" class="shp1" d="M19.51 25.46L19.51 24.42L28.29 24.42L28.29 26.5L19.51 26.5L19.51 25.46ZM19.51 22.13L19.51 21.09L28.29 21.09L28.29 23.17L19.51 23.17L19.51 22.13ZM19.51 18.8L19.51 17.76L28.29 17.76L28.29 19.84L19.51 19.84L19.51 18.8L19.51 18.8ZM19.51 15.37L19.51 14.33L28.29 14.33L28.29 16.51L19.51 16.51L19.51 15.37L19.51 15.37Z" />
	<path id="path55" class="shp2" d="M29.31 25.46L29.31 24.42L38.09 24.42L38.09 26.5L29.31 26.5L29.31 25.46L29.31 25.46ZM29.31 22.13L29.31 21.09L38.09 21.09L38.09 23.17L29.31 23.17L29.31 22.13L29.31 22.13Z" />
	<path id="path53" class="shp3" d="M9.8 35.44L9.8 34.4L18.38 34.4L18.38 36.48L9.8 36.48L9.8 35.44ZM9.8 32.01L9.8 30.97L18.38 30.97L18.38 33.05L9.8 33.05L9.8 32.01ZM9.8 28.68L9.8 27.64L18.38 27.64L18.38 29.72L9.8 29.72L9.8 28.68Z" />
	<path id="path51" class="shp4" d="M0 25.46L0 24.42L8.58 24.42L8.58 26.5L0 26.5L0 25.46ZM0 22.13L0 21.09L8.58 21.09L8.58 23.17L0 23.17L0 22.13Z" />
	<path id="path49" class="shp5" d="M39.22 35.44L39.22 34.4L47.8 34.4L47.8 36.48L39.22 36.48L39.22 35.44ZM39.22 32.01L39.22 30.97L47.8 30.97L47.8 33.05L39.22 33.05L39.22 32.01ZM39.22 28.68L39.22 27.64L47.8 27.64L47.8 29.72L39.22 29.72L39.22 28.68Z" />
	<path id="path47" class="shp6" d="M29.41 35.44L29.41 34.4L37.99 34.4L37.99 36.48L29.41 36.48L29.41 35.44L29.41 35.44ZM29.41 32.01L29.41 30.97L37.99 30.97L37.99 33.05L29.41 33.05L29.41 32.01L29.41 32.01ZM29.41 28.68L29.41 27.64L37.99 27.64L37.99 29.72L29.41 29.72L29.41 28.68L29.41 28.68Z" />
	<path id="path45" class="shp7" d="M19.61 35.44L19.61 34.4L28.19 34.4L28.19 36.48L19.61 36.48L19.61 35.44L19.61 35.44ZM19.61 32.01L19.61 30.97L28.19 30.97L28.19 33.05L19.61 33.05L19.61 32.01L19.61 32.01ZM19.61 28.68L19.61 27.64L28.19 27.64L28.19 29.72L19.61 29.72L19.61 28.68L19.61 28.68Z" />
	<path id="path43" class="shp8" d="M0 35.44L0 34.4L8.58 34.4L8.58 36.48L0 36.48L0 35.44ZM0 32.01L0 30.97L8.58 30.97L8.58 33.05L0 33.05L0 32.01ZM0 28.68L0 27.64L8.58 27.64L8.58 29.72L0 29.72L0 28.68Z" />
</svg>